<svg width="99" height="87" viewBox="0 0 100 88" fill="none" xmlns="http://www.w3.org/2000/svg">
  <path fill="#4C8D75" fill-rule="nonzero" d="M43.79 11.77c2.77,8.3 -0.05,16.67 -6.3,18.72 -6.25,2.05 -13.56,-3.02 -16.32,-11.31 -2.77,-8.3 0.05,-16.67 6.3,-18.72 6.25,-2.05 13.56,3.01 16.32,11.31zm-24.38 20.44c3.65,6.27 2.76,13.56 -1.98,16.27 -4.73,2.7 -11.54,-0.18 -15.18,-6.44 -3.63,-6.27 -2.78,-13.56 1.96,-16.27 4.73,-2.71 11.54,0.18 15.18,6.44l0.02 0zm-6.04 39.18c10.14,-27.32 28.14,-34.27 36.13,-34.27 7.99,0 25.99,6.95 36.12,34.27 0.7,1.88 1.01,3.89 1.01,5.9l0 0.31c0,4.99 -4.04,9.03 -9.03,9.03 -2.23,0 -4.43,-0.27 -6.58,-0.81l-17.02 -4.25c-2.95,-0.74 -6.05,-0.74 -9.01,0l-17.02 4.25c-2.14,0.54 -4.35,0.81 -6.57,0.81 -4.99,0 -9.03,-4.04 -9.03,-9.03l0 -0.31c0,-2.01 0.31,-4.02 1,-5.9zm68.19 -22.91c-4.74,-2.71 -5.62,-10 -1.97,-16.27 3.65,-6.26 10.44,-9.15 15.18,-6.44 4.74,2.71 5.63,10 1.97,16.27 -3.65,6.26 -10.44,9.14 -15.18,6.44zm-21.6 -17.99c-6.25,-2.05 -9.07,-10.42 -6.3,-18.72 2.76,-8.3 10.07,-13.36 16.32,-11.31 6.24,2.05 9.07,10.42 6.3,18.72 -2.76,8.29 -10.07,13.36 -16.32,11.31z"/>
</svg>
