 <svg width="950" height="210" viewBox="0 0 950 210" fill="none" xmlns="http://www.w3.org/2000/svg">
   <path fill="#594D39" fill-rule="nonzero" d="M117.42 206.54c-8.36,0 -14.55,-1.41 -18.54,-4.22 -4,-2.81 -5.91,-5.99 -5.72,-9.55l3.9 0c-0.93,1.31 -2.74,3.04 -5.44,5.2 -2.69,2.15 -6.27,4.12 -10.73,5.9 -4.47,1.78 -9.95,2.67 -16.46,2.67 -8.37,0 -16.41,-1.92 -24.13,-5.76 -7.71,-3.84 -14.59,-9.14 -20.64,-15.88 -6.04,-6.74 -10.83,-14.38 -14.36,-22.9 -3.53,-8.53 -5.3,-17.47 -5.3,-26.84 0,-9.18 1.77,-17.98 5.3,-26.41 3.53,-8.43 8.37,-15.97 14.5,-22.62 6.14,-6.65 13.02,-11.9 20.64,-15.74 7.63,-3.84 15.62,-5.76 23.99,-5.76 6.32,0 11.67,0.94 16.04,2.81 4.37,1.87 7.9,3.93 10.6,6.18 2.69,2.25 4.51,4.12 5.44,5.62l-3.07 0c-0.19,-4.68 1.72,-8.33 5.71,-10.96 4,-2.62 10.19,-3.93 18.55,-3.93 8.37,0 14.27,1.26 17.71,3.79 3.44,2.53 5.54,5.76 6.28,9.7 0.74,3.93 1.12,7.96 1.12,12.08l0 91.33c0,4.12 -0.38,8.15 -1.12,12.08 -0.74,3.93 -2.84,7.12 -6.28,9.55 -3.44,2.44 -9.43,3.66 -17.99,3.66z"/>
   <path fill="#594D39" fill-rule="nonzero" d="M184.64 206.82c-8.36,0 -14.31,-1.27 -17.85,-3.8 -3.53,-2.52 -5.62,-5.76 -6.27,-9.69 -0.65,-3.93 -0.98,-7.96 -0.98,-12.08l0 -92.45c0,-4.12 0.37,-8.06 1.12,-11.8 0.74,-3.75 2.88,-6.8 6.41,-9.14 3.53,-2.34 9.48,-3.51 17.85,-3.51 7.63,0 13.16,0.98 16.6,2.95 3.44,1.97 5.62,4.36 6.55,7.17 0.93,2.81 1.35,5.38 1.26,7.72 -0.1,2.35 0.04,3.8 0.42,4.36l-2.24 1.68c-0.18,-2.8 0.89,-5.62 3.21,-8.43 2.33,-2.8 5.39,-5.38 9.21,-7.72 3.81,-2.35 7.9,-4.22 12.27,-5.62 4.37,-1.41 8.5,-2.11 12.41,-2.11 9.3,0 17.48,1.78 24.55,5.34 7.06,3.56 12.96,8.57 17.71,15.03 4.74,6.47 8.32,14.01 10.73,22.62 2.42,8.62 3.63,17.99 3.63,28.1l0 46.09c0,4.12 -0.37,8.15 -1.12,12.08 -0.74,3.94 -2.83,7.12 -6.27,9.55 -3.44,2.44 -9.44,3.66 -17.99,3.66 -8.56,0 -14.6,-1.27 -18.13,-3.8 -3.53,-2.52 -5.67,-5.76 -6.42,-9.69 -0.74,-3.93 -1.11,-7.96 -1.11,-12.08l0 -45.81c0,-4.31 -0.79,-7.96 -2.37,-10.96 -1.58,-2.99 -3.81,-5.29 -6.7,-6.88 -2.88,-1.59 -6.46,-2.39 -10.73,-2.39 -4.1,0 -7.67,0.84 -10.74,2.53 -3.07,1.69 -5.44,4.03 -7.12,7.03 -1.67,2.99 -2.51,6.55 -2.51,10.67l0 46.09c0,4.12 -0.37,8.15 -1.11,12.08 -0.74,3.94 -2.84,7.12 -6.28,9.55 -3.44,2.44 -9.43,3.66 -17.99,3.66z"/>
   <path fill="#594D39" fill-rule="nonzero" d="M343.9 207.1c-8.36,0 -14.31,-1.26 -17.85,-3.79 -3.53,-2.53 -5.62,-5.76 -6.27,-9.7 -0.65,-3.93 -0.98,-7.96 -0.98,-12.08l0 -91.61c0,-4.12 0.37,-8.1 1.12,-11.94 0.74,-3.84 2.88,-7.03 6.41,-9.56 3.54,-2.53 9.49,-3.79 17.85,-3.79 8.37,0 14.28,1.26 17.72,3.79 3.44,2.53 5.53,5.76 6.27,9.7 0.74,3.93 1.12,8.05 1.12,12.36l0 91.33c0,4.12 -0.38,8.15 -1.12,12.08 -0.74,3.94 -2.83,7.12 -6.27,9.56 -3.44,2.43 -9.44,3.65 -18,3.65zm0 -156.24c-8.36,0 -14.31,-1.26 -17.85,-3.79 -3.53,-2.53 -5.62,-5.76 -6.27,-9.7 -0.65,-3.93 -0.98,-7.96 -0.98,-12.08 0,-4.31 0.37,-8.38 1.12,-12.22 0.74,-3.84 2.88,-6.98 6.41,-9.42 3.54,-2.43 9.49,-3.65 17.85,-3.65 8.37,0 14.28,1.26 17.72,3.79 3.44,2.53 5.53,5.76 6.27,9.7 0.74,3.93 1.12,7.96 1.12,12.08 0,4.12 -0.38,8.15 -1.12,12.08 -0.74,3.94 -2.83,7.12 -6.27,9.56 -3.44,2.43 -9.44,3.65 -18,3.65z"/>
   <path fill="#594D39" fill-rule="nonzero" d="M411.96 207.1c-8.37,0 -14.32,-1.26 -17.85,-3.79 -3.53,-2.53 -5.62,-5.76 -6.27,-9.7 -0.66,-3.93 -0.98,-7.96 -0.98,-12.08l0 -91.89c0,-4.31 0.37,-8.38 1.11,-12.22 0.75,-3.84 2.89,-6.98 6.42,-9.42 3.53,-2.43 9.58,-3.65 18.13,-3.65 8.37,0 14.46,1.64 18.27,4.92 3.81,3.28 5.72,8.57 5.72,15.87l-4.75 -1.4c0,0 0.7,-0.99 2.1,-2.95 1.39,-1.97 3.44,-4.26 6.13,-6.89 2.7,-2.62 6,-4.91 9.9,-6.88 3.91,-1.97 8.37,-2.95 13.39,-2.95 5.77,0 11.07,0.75 15.9,2.25 4.83,1.5 9.25,3.79 13.25,6.88 4,3.09 7.48,6.89 10.46,11.38 2.04,-2.43 4.83,-5.24 8.36,-8.43 3.54,-3.18 7.77,-5.99 12.7,-8.43 4.92,-2.43 10.45,-3.65 16.59,-3.65 10.97,0 20.32,2.81 28.03,8.43 7.72,5.62 13.58,13.77 17.57,24.45 4,10.67 6,23.6 6,38.77l0 45.81c0,4.12 -0.37,8.15 -1.11,12.08 -0.75,3.94 -2.89,7.17 -6.42,9.7 -3.53,2.53 -9.58,3.79 -18.13,3.79 -8.37,0 -14.32,-1.31 -17.85,-3.94 -3.53,-2.62 -5.62,-5.9 -6.28,-9.83 -0.65,-3.93 -0.97,-7.96 -0.97,-12.08l0 -45.81c0,-4.49 -0.51,-8.19 -1.54,-11.1 -1.02,-2.9 -2.51,-5.1 -4.46,-6.6 -1.95,-1.5 -4.41,-2.25 -7.39,-2.25 -3.16,0 -5.72,0.66 -7.67,1.97 -1.95,1.31 -3.35,3.42 -4.18,6.32 -0.84,2.91 -1.26,6.89 -1.26,11.94l0 45.81c0,4.12 -0.37,8.15 -1.12,12.08 -0.74,3.94 -2.88,7.17 -6.41,9.7 -3.53,2.53 -9.58,3.79 -18.13,3.79 -8.37,0 -14.32,-1.31 -17.85,-3.94 -3.53,-2.62 -5.63,-5.9 -6.28,-9.83 -0.65,-3.93 -0.97,-7.96 -0.97,-12.08l0 -45.81c0,-4.49 -0.47,-8.24 -1.4,-11.24 -0.93,-2.99 -2.37,-5.2 -4.32,-6.6 -1.95,-1.4 -4.51,-2.11 -7.67,-2.11 -3.72,0 -6.51,0.94 -8.37,2.81 -1.86,1.88 -3.11,4.31 -3.76,7.31 -0.65,3 -0.98,6.27 -0.98,9.83l0 46.37c0,4.12 -0.37,8.15 -1.11,12.08 -0.75,3.94 -2.89,7.12 -6.42,9.56 -3.53,2.43 -9.58,3.65 -18.13,3.65z"/>
   <path fill="#594D39" fill-rule="nonzero" d="M721.28 206.54c-8.37,0 -14.55,-1.41 -18.55,-4.22 -4,-2.81 -5.9,-5.99 -5.72,-9.55l3.91 0c-0.93,1.31 -2.74,3.04 -5.44,5.2 -2.7,2.15 -6.28,4.12 -10.74,5.9 -4.46,1.78 -9.95,2.67 -16.45,2.67 -8.37,0 -16.41,-1.92 -24.13,-5.76 -7.72,-3.84 -14.6,-9.14 -20.64,-15.88 -6.04,-6.74 -10.83,-14.38 -14.37,-22.9 -3.53,-8.53 -5.29,-17.47 -5.29,-26.84 0,-9.18 1.76,-17.98 5.29,-26.41 3.54,-8.43 8.37,-15.97 14.51,-22.62 6.13,-6.65 13.01,-11.9 20.64,-15.74 7.62,-3.84 15.62,-5.76 23.99,-5.76 6.32,0 11.66,0.94 16.03,2.81 4.37,1.87 7.91,3.93 10.6,6.18 2.7,2.25 4.51,4.12 5.44,5.62l-3.07 0c-0.18,-4.68 1.72,-8.33 5.72,-10.96 4,-2.62 10.18,-3.93 18.55,-3.93 8.37,0 14.27,1.26 17.71,3.79 3.44,2.53 5.53,5.76 6.28,9.7 0.74,3.93 1.11,7.96 1.11,12.08l0 91.33c0,4.12 -0.37,8.15 -1.11,12.08 -0.75,3.93 -2.84,7.12 -6.28,9.55 -3.44,2.44 -9.44,3.66 -17.99,3.66z"/>
   <path fill="#594D39" fill-rule="nonzero" d="M789.89 207.1c-8.36,0 -14.31,-1.26 -17.85,-3.79 -3.53,-2.53 -5.62,-5.76 -6.27,-9.7 -0.65,-3.93 -0.98,-7.96 -0.98,-12.08l0 -91.61c0,-4.12 0.37,-8.1 1.12,-11.94 0.74,-3.84 2.88,-7.03 6.41,-9.56 3.53,-2.53 9.48,-3.79 17.85,-3.79 8.37,0 14.27,1.26 17.71,3.79 3.44,2.53 5.54,5.76 6.28,9.7 0.74,3.93 1.11,8.05 1.11,12.36l0 91.33c0,4.12 -0.37,8.15 -1.11,12.08 -0.74,3.94 -2.84,7.12 -6.28,9.56 -3.44,2.43 -9.43,3.65 -17.99,3.65zm0 -156.24c-8.36,0 -14.31,-1.26 -17.85,-3.79 -3.53,-2.53 -5.62,-5.76 -6.27,-9.7 -0.65,-3.93 -0.98,-7.96 -0.98,-12.08 0,-4.31 0.37,-8.38 1.12,-12.22 0.74,-3.84 2.88,-6.98 6.41,-9.42 3.53,-2.43 9.48,-3.65 17.85,-3.65 8.37,0 14.27,1.26 17.71,3.79 3.44,2.53 5.54,5.76 6.28,9.7 0.74,3.93 1.11,7.96 1.11,12.08 0,4.12 -0.37,8.15 -1.11,12.08 -0.74,3.94 -2.84,7.12 -6.28,9.56 -3.44,2.43 -9.43,3.65 -17.99,3.65z"/>
   <path fill="#594D39" fill-rule="nonzero" d="M886.12 209.63c-5.21,0 -11.02,-0.61 -17.43,-1.83 -6.42,-1.22 -12.65,-3 -18.69,-5.34 -6.04,-2.34 -11.02,-5.1 -14.92,-8.29 -3.91,-3.18 -5.86,-6.83 -5.86,-10.96 0,-1.87 0.42,-3.98 1.26,-6.32 0.83,-2.34 1.99,-4.92 3.48,-7.73 1.49,-2.81 3.35,-5.8 5.58,-8.99 1.3,-1.87 2.84,-3.28 4.6,-4.21 1.77,-0.94 3.86,-1.41 6.28,-1.41 3.35,0 6.6,0.7 9.76,2.11 3.16,1.4 6.32,3 9.48,4.78 3.16,1.78 6.47,3.37 9.9,4.77 3.45,1.41 7.12,2.11 11.02,2.11 3.53,0 6.19,-0.37 7.95,-1.12 1.77,-0.75 2.65,-1.88 2.65,-3.38 0,-1.49 -0.6,-2.71 -1.81,-3.65 -1.21,-0.94 -2.88,-1.73 -5.02,-2.39 -2.14,-0.65 -4.6,-1.26 -7.39,-1.82 -2.79,-0.57 -5.77,-1.22 -8.93,-1.97 -3.16,-0.75 -6.41,-1.69 -9.76,-2.81 -4.28,-1.31 -8.46,-3.04 -12.55,-5.2 -4.09,-2.15 -7.77,-5.01 -11.02,-8.57 -3.25,-3.56 -5.86,-7.87 -7.81,-12.93 -1.95,-5.05 -2.93,-11.24 -2.93,-18.54 0,-9.74 2.23,-17.89 6.7,-24.45 4.46,-6.56 11.06,-11.52 19.8,-14.89 8.74,-3.37 19.52,-5.06 32.35,-5.06 3.16,0 6.33,0.19 9.49,0.56 3.16,0.38 6.37,0.94 9.62,1.69 3.25,0.75 6.51,1.73 9.76,2.95 3.26,1.22 6.56,2.57 9.9,4.07 6.88,3 10.42,7.17 10.6,12.51 0.19,5.34 -1.77,10.91 -5.86,16.72 -2.23,3.56 -4.5,6.23 -6.83,8.01 -2.32,1.77 -4.69,2.67 -7.11,2.67 -2.98,0 -6.23,-0.85 -9.76,-2.53 -3.54,-1.69 -7.26,-3.38 -11.16,-5.06 -3.9,-1.69 -7.81,-2.53 -11.71,-2.53 -2.24,0 -4.14,0.23 -5.72,0.7 -1.58,0.47 -2.75,1.13 -3.49,1.97 -0.74,0.84 -1.11,1.82 -1.11,2.95 0,2.06 0.69,3.7 2.09,4.92 1.39,1.21 3.25,2.2 5.58,2.95 2.32,0.75 5.02,1.4 8.08,1.96 3.07,0.57 6.37,1.13 9.91,1.69 4.83,0.75 9.8,1.92 14.92,3.51 5.11,1.59 9.81,3.89 14.08,6.89 4.28,2.99 7.72,7.12 10.32,12.36 2.61,5.25 3.91,12.08 3.91,20.52 0,15.92 -5.25,28 -15.76,36.24 -10.51,8.25 -25.99,12.37 -46.44,12.37z"/>
   <path fill="#EDEBE7" d="M53 105.38c5.4,-2.54 12.3,-3.32 18.16,-3.56l0.24 -0.01 0.25 0.01c5.85,0.24 12.75,1.02 18.15,3.56l14.02 -9.85c1.79,-1.25 3.97,-1.39 5.9,-0.38 1.93,1.02 3.06,2.9 3.06,5.09l0 38.95 -0.03 0.3c-2.28,22.97 -18.85,36.92 -41.34,36.92 -22.57,0 -39.08,-14.03 -41.36,-36.92l-0.03 -0.3 0 -38.95c0,-2.19 1.13,-4.07 3.06,-5.09 1.94,-1.01 4.12,-0.87 5.9,0.38l14.02 9.85zm39.85 53.67c0.58,0.11 0.95,0.68 0.84,1.26 -0.12,0.58 -0.68,0.96 -1.26,0.84l-12.27 -2.51c-0.57,-0.11 -0.95,-0.68 -0.83,-1.26 0.11,-0.58 0.68,-0.96 1.25,-0.84l12.27 2.51zm0.27 -6.17c0.59,0 1.07,0.47 1.08,1.06 0.01,0.6 -0.47,1.08 -1.05,1.09l-12.52 0.16c-0.59,0.01 -1.07,-0.46 -1.08,-1.06 -0.01,-0.59 0.46,-1.08 1.05,-1.08l12.52 -0.17zm-0.17 -5.69c0.58,-0.11 1.14,0.27 1.25,0.85 0.11,0.58 -0.27,1.15 -0.85,1.26l-12.29 2.41c-0.58,0.11 -1.14,-0.27 -1.25,-0.86 -0.11,-0.58 0.27,-1.15 0.85,-1.26l12.29 -2.4zm-42.58 13.96c-0.57,0.12 -1.14,-0.26 -1.25,-0.84 -0.12,-0.58 0.26,-1.15 0.83,-1.26l12.27 -2.51c0.58,-0.12 1.14,0.26 1.26,0.84 0.11,0.58 -0.26,1.15 -0.84,1.26l-12.27 2.51zm-0.71 -6.12c-0.59,-0.01 -1.06,-0.49 -1.05,-1.09 0,-0.59 0.49,-1.06 1.07,-1.06l12.52 0.17c0.59,0 1.06,0.49 1.06,1.08 -0.01,0.6 -0.49,1.07 -1.08,1.06l-12.52 -0.16zm-0.2 -5.73c-0.58,-0.11 -0.96,-0.68 -0.85,-1.26 0.11,-0.58 0.67,-0.96 1.25,-0.85l12.29 2.4c0.58,0.11 0.96,0.68 0.85,1.26 -0.11,0.59 -0.67,0.97 -1.25,0.86l-12.29 -2.41zm39.62 -18.83c-3.21,0 -5.81,2.99 -5.81,6.67 0,3.68 2.6,6.67 5.81,6.67 3.21,0 5.81,-2.99 5.81,-6.67 0,-3.68 -2.6,-6.67 -5.81,-6.67zm-17.68 21.38c-2.97,-0.01 -6.31,-2.95 -6.27,-4.67 0.05,-2.92 4.41,-2.88 6.27,-2.88 1.85,0 6.21,-0.04 6.27,2.88 0.03,1.72 -3.31,4.66 -6.27,4.67zm-17.67 -21.38c3.2,0 5.8,2.99 5.8,6.67 0,3.68 -2.6,6.67 -5.8,6.67 -3.21,0 -5.81,-2.99 -5.81,-6.67 0,-3.68 2.6,-6.67 5.81,-6.67zm-3.18 -19.31l-14.42 -10.12 0 37.84c1.97,19.81 15.92,31.37 35.28,31.37 14.73,0 32.9,-7.56 35.26,-31.37l0 -37.84 -14.41 10.12c-1.29,0.9 -2.82,0.9 -4.63,0 -4.01,-2.02 -9.91,-2.93 -16.23,-3.19 -6.31,0.26 -12.22,1.17 -16.23,3.19 -1.8,0.9 -3.34,0.9 -4.62,0z"/>
   <path fill="#EDEBE7" d="M643.06 122.92c0.02,-5.75 1.04,-11.1 3.57,-15.63l0.01 -0.01 0.01 -0.01 0 -0.01 0.01 -0.01 0 -0.01 0.01 -0.01 0 -0.01 0.01 -0.01 0.01 -0.01 0 -0.01 0.01 -0.01 0 -0.01 0.01 -0.01 0 -0.01 0.01 -0.01 0.01 -0.01 0.01 -0.02 0 -0.01 0.01 -0.02 0.01 0 0 -0.02 0.01 -0.01 0 -0.01 0.01 -0.01 0.01 -0.01 0 -0.01 0.01 -0.01 0.01 -0.01 0 -0.01 0.01 -0.01 0 -0.01 0.01 -0.01 0 -0.01 0.01 -0.01 0.01 -0.01 0 -0.01 0.01 -0.01 0.01 -0.01 0 -0.01 0.01 -0.01 0 -0.01 0.01 -0.01 0.01 -0.02 0.01 -0.01 0 -0.01 0.01 -0.02 0.01 0 0 -0.02 0.03 -0.04 0 -0.01 0.03 -0.05 0.01 -0.01 0.01 -0.01 0.01 -0.02 -0.01 0.02 0.05 -0.08 0 -0.01 0.01 -0.01 0.01 -0.01 0 -0.01 0.01 -0.01 0 -0.01 0.01 -0.01 0.01 -0.01 0 -0.01 0.01 -0.01 0.01 -0.01 0 -0.01 0.01 -0.01 0 -0.01 0.01 -0.01 0 -0.01 0.01 -0.01 0.04 -0.06 0 -0.01 0.01 -0.01 0.01 -0.01 0.01 -0.02 0 -0.01 0.01 -0.01 0.01 -0.01 0 -0.01 0.01 -0.01 0.01 -0.01 0 -0.01 0.01 -0.01 0 0 0 -0.01 0.01 -0.01 0.01 -0.01 0 -0.01 0.01 -0.01 0 -0.01 0.02 -0.02 0 -0.01 0.04 -0.05 0.01 -0.02 0.05 -0.07 0.01 -0.01 0.01 -0.02 0 -0.01 0.07 -0.1 0.05 -0.08 -0.04 0.07 0.07 -0.12c-10.53,-4.11 -18.55,-2.68 -23.19,5.57 -3.42,6.09 1.79,10.95 7.41,16.54 4.09,4.07 6.49,14.23 10.79,13.57 2.06,-0.32 4.03,-1.22 6.01,-2.86 -3.92,-4.41 -5.57,-9.54 -5.56,-15.61zm8.6 -21.78c0.95,-0.82 2,-1.59 3.14,-2.3 5.33,-3.32 12.81,-5.44 19.1,-5.44 9.94,0 18.9,2.33 25.07,7.69l2.03 -0.79c11.65,-4.49 23.42,-3.66 30.06,8.16 5.41,9.63 -1.97,17.08 -8.37,23.44 -1.51,1.51 -3.26,5.32 -4.34,7.28 -2.39,4.3 -5.78,8.73 -11.31,7.87 -3.16,-0.48 -5.96,-1.85 -8.46,-3.84l-1.07 -0.85c-2.54,1.91 -5.22,4.11 -7.58,7.74 -2.93,4.51 -5.01,10.9 -6.76,15.99 -4.37,12.77 -15.62,11.87 -26.99,10.88l-5.46 -0.48 0.81 -16.49 5.3 -0.11c1.32,-0.03 4.03,-0.1 5.26,-0.62 2.19,-0.95 3.42,-1.67 2.98,-4.1 -0.46,-2.6 -4.29,-6.11 -6.1,-7.88 -1.83,-1.79 -3.99,-3.27 -6.06,-4.88l-0.68 0.56c-2.56,2.11 -5.46,3.58 -8.75,4.08 -5.53,0.86 -8.92,-3.57 -11.31,-7.87 -1.09,-1.96 -2.83,-5.77 -4.35,-7.28 -6.4,-6.37 -13.78,-13.81 -8.36,-23.45 6.67,-11.88 18.52,-12.64 30.2,-8.09l2 0.78zm-1.64 29.05l0.03 0.08 0.03 0.07 0.03 0.08 0.07 0.15 0.03 0.08 0.04 0.08c0.61,1.34 1.43,2.61 2.49,3.83l0.06 0.07 -0.05 -0.05 0.06 0.06 0.05 0.06c2.94,3.29 6.93,5.38 10.09,8.49 3.75,3.69 6.99,6.89 7.72,10.96 0.77,4.27 -0.63,7.93 -6.34,10.39 -1.76,0.76 -4.23,1.01 -7.38,1.08l-0.27 5.64c15.39,1.34 18.83,-0.39 21.11,-7.04 2.52,-7.36 4.62,-13.02 7.38,-17.27 7.9,-12.13 16.66,-8.96 16.66,-23.46 0.71,-21.22 -16.58,-24.35 -27.93,-24.35 -5.81,0 -12.21,2.15 -16.11,4.58 -3.22,2.01 -5.49,4.63 -6.95,7.88l0.23 -0.49c-1.35,2.81 -1.99,5.95 -2.22,9.08l0.04 -0.48c-0.09,1.03 -0.13,2.11 -0.13,3.22 -0.01,2.85 0.43,5.17 1.19,7.11l0.04 0.07 0 0.01 0 0.01 0.03 0.06zm52.65 -25.06c3.31,4.6 5.11,10.68 4.85,18.46 0,8.31 -2.26,12.19 -5.41,15.12l0 0c1.91,1.52 3.81,2.37 5.79,2.68 4.31,0.66 6.7,-9.5 10.79,-13.57 5.62,-5.59 10.84,-10.45 7.41,-16.54 -4.61,-8.21 -12.59,-9.66 -23.06,-5.62 -0.12,-0.18 -0.24,-0.35 -0.37,-0.53zm-36.51 11.36c2.26,0 4.09,2.34 4.09,5.22 0,2.88 -1.83,5.21 -4.09,5.21 -2.26,0 -4.09,-2.33 -4.09,-5.21 0,-2.88 1.83,-5.22 4.09,-5.22zm19.25 0c2.26,0 4.09,2.34 4.09,5.22 0,2.88 -1.83,5.21 -4.09,5.21 -2.26,0 -4.09,-2.33 -4.09,-5.21 0,-2.88 1.83,-5.22 4.09,-5.22z"/>
</svg>
